<?xml version="1.0" encoding="utf-8"?>
<!-- Generator: Adobe Illustrator 25.2.0, SVG Export Plug-In . SVG Version: 6.00 Build 0)  -->
<svg version="1.1" id="Слой_1" xmlns="http://www.w3.org/2000/svg" xmlns:xlink="http://www.w3.org/1999/xlink" x="0px" y="0px"
	 viewBox="0 0 20 20" style="enable-background:new 0 0 20 20;" xml:space="preserve">
<style type="text/css">
	.st0{fill:#FFFFFF;}
</style>
<path class="st0" d="M17.2,5.5H2.8c-0.9,0-1.6-0.7-1.6-1.6v0c0-0.9,0.7-1.6,1.6-1.6h14.4c0.9,0,1.6,0.7,1.6,1.6v0
	C18.8,4.8,18.1,5.5,17.2,5.5z"/>
<path class="st0" d="M17.2,11.6H2.8c-0.9,0-1.6-0.7-1.6-1.6v0c0-0.9,0.7-1.6,1.6-1.6h14.4c0.9,0,1.6,0.7,1.6,1.6v0
	C18.8,10.9,18.1,11.6,17.2,11.6z"/>
<path class="st0" d="M17.1,17.7H2.7c-0.9,0-1.6-0.7-1.6-1.6v0c0-0.9,0.7-1.6,1.6-1.6h14.4c0.9,0,1.6,0.7,1.6,1.6v0
	C18.7,17,18,17.7,17.1,17.7z"/>
</svg>
