<?xml version="1.0" encoding="utf-8"?>
<!-- Generator: Adobe Illustrator 25.2.0, SVG Export Plug-In . SVG Version: 6.00 Build 0)  -->
<svg version="1.1" id="Слой_1" xmlns="http://www.w3.org/2000/svg" xmlns:xlink="http://www.w3.org/1999/xlink" x="0px" y="0px"
	 viewBox="0 0 20 20" style="enable-background:new 0 0 20 20;" xml:space="preserve">
<style type="text/css">
	.st0{fill:#FFFFFF;}
</style>
<g id="XMLID_1_">
	<g>
		<path class="st0" d="M19.7,17.3c0.4,0.4,0.4,1,0,1.3l-1.1,1.1c-0.4,0.4-1,0.4-1.3,0l-3.9-3.9c-0.2-0.2-0.3-0.4-0.3-0.7v-0.6
			c-1.4,1.1-3.1,1.7-5,1.7C3.6,16.2,0,12.6,0,8.1C0,3.6,3.6,0,8.1,0c4.5,0,8.1,3.6,8.1,8.1c0,1.9-0.6,3.6-1.7,5h0.6
			c0.2,0,0.5,0.1,0.7,0.3L19.7,17.3z M13.1,8.1c0-2.8-2.2-5-5-5c-2.8,0-5,2.2-5,5c0,2.8,2.2,5,5,5C10.9,13.1,13.1,10.9,13.1,8.1z"/>
	</g>
	<g>
	</g>
</g>
</svg>
